<svg width="47" height="47" viewBox="0 0 47 47" fill="none" xmlns="http://www.w3.org/2000/svg">
<circle cx="23.5" cy="23.5" r="23.5" fill="#FCEFD2"/>
<path d="M13.8982 15.6504H37.887C37.8473 16.841 37.6946 18.3921 37.3789 19.9762M15.078 27.4481C18.8795 27.4481 27.5836 27.4481 31.9881 27.4481C35.0591 27.4481 36.6516 23.6245 37.3789 19.9762M37.3789 19.9762H15.078" stroke="#642C99" stroke-width="1.5"/>
<path d="M34.3483 32.1676H19.4045C17.9625 32.1676 15.0787 30.9092 15.0787 25.8755C15.0787 19.5833 15.0787 10.9316 8 10.9316" stroke="#642C99" stroke-width="1.5"/>
<circle cx="18.2251" cy="38.4592" r="2.78933" stroke="#642C99" stroke-width="1.5"/>
<circle cx="31.595" cy="38.4592" r="2.78933" stroke="#642C99" stroke-width="1.5"/>
<circle cx="32.2247" cy="17.2247" r="10.2247" fill="#F7CDBF"/>
<path d="M31.895 21.08C31.5383 21.08 31.2117 21.0333 30.915 20.94C30.6183 20.8433 30.3633 20.7067 30.15 20.53C29.9367 20.3533 29.7717 20.14 29.655 19.89C29.5383 19.6367 29.48 19.3533 29.48 19.04C29.48 18.58 29.6 18.2017 29.84 17.905C30.08 17.605 30.4233 17.3917 30.87 17.265C30.4933 17.125 30.2083 16.9167 30.015 16.64C29.825 16.36 29.73 16.0267 29.73 15.64C29.73 15.3767 29.7817 15.13 29.885 14.9C29.9883 14.67 30.135 14.47 30.325 14.3C30.515 14.13 30.7417 13.9967 31.005 13.9C31.2717 13.8033 31.5683 13.755 31.895 13.755C32.2183 13.755 32.5133 13.8033 32.78 13.9C33.0467 13.9967 33.275 14.13 33.465 14.3C33.655 14.47 33.8017 14.67 33.905 14.9C34.0083 15.13 34.06 15.3767 34.06 15.64C34.06 16.0267 33.9633 16.36 33.77 16.64C33.5767 16.9167 33.2933 17.125 32.92 17.265C33.3667 17.3917 33.71 17.605 33.95 17.905C34.19 18.2017 34.31 18.58 34.31 19.04C34.31 19.3533 34.25 19.6367 34.13 19.89C34.0133 20.14 33.8483 20.3533 33.635 20.53C33.425 20.7067 33.1717 20.8433 32.875 20.94C32.5783 21.0333 32.2517 21.08 31.895 21.08ZM31.895 20.37C32.1283 20.37 32.3367 20.3383 32.52 20.275C32.7067 20.2083 32.8633 20.1167 32.99 20C33.12 19.88 33.2183 19.7383 33.285 19.575C33.355 19.4083 33.39 19.225 33.39 19.025C33.39 18.7783 33.3483 18.5683 33.265 18.395C33.185 18.2183 33.075 18.075 32.935 17.965C32.7983 17.855 32.64 17.775 32.46 17.725C32.28 17.6717 32.0917 17.645 31.895 17.645C31.6983 17.645 31.51 17.6717 31.33 17.725C31.15 17.775 30.99 17.855 30.85 17.965C30.7133 18.075 30.6033 18.2183 30.52 18.395C30.44 18.5683 30.4 18.7783 30.4 19.025C30.4 19.225 30.4333 19.4083 30.5 19.575C30.57 19.7383 30.6683 19.88 30.795 20C30.925 20.1167 31.0817 20.2083 31.265 20.275C31.4517 20.3383 31.6617 20.37 31.895 20.37ZM31.895 16.93C32.1283 16.93 32.3267 16.895 32.49 16.825C32.6567 16.7517 32.7917 16.6567 32.895 16.54C32.9983 16.42 33.0733 16.2833 33.12 16.13C33.1667 15.9767 33.19 15.8183 33.19 15.655C33.19 15.4883 33.1617 15.3317 33.105 15.185C33.0517 15.0383 32.97 14.91 32.86 14.8C32.7533 14.69 32.6183 14.6033 32.455 14.54C32.295 14.4767 32.1083 14.445 31.895 14.445C31.6817 14.445 31.4933 14.4767 31.33 14.54C31.17 14.6033 31.035 14.69 30.925 14.8C30.8183 14.91 30.7367 15.0383 30.68 15.185C30.6267 15.3317 30.6 15.4883 30.6 15.655C30.6 15.8183 30.6233 15.9767 30.67 16.13C30.7167 16.2833 30.7917 16.42 30.895 16.54C30.9983 16.6567 31.1317 16.7517 31.295 16.825C31.4617 16.895 31.6617 16.93 31.895 16.93Z" fill="#642C99"/>
</svg>
